<?xml version="1.0" encoding="utf-8"?>
<svg xmlns="http://www.w3.org/2000/svg" viewBox="0 0 30 30"><path d="M 5 5 C 3.895 5 3 5.895 3 7 L 3 22 C 3 23.105 3.895 24 5 24 L 9 24 L 9 28 A 1 1 0 0 0 10 29 A 1 1 0 0 0 10.837891 28.542969 L 14.25 24 L 25 24 C 26.105 24 27 23.105 27 22 L 27 7 C 27 5.895 26.105 5 25 5 L 5 5 z M 8 9 C 8.552 9 9 9.448 9 10 C 9 10.552 8.552 11 8 11 C 7.448 11 7 10.552 7 10 C 7 9.448 7.448 9 8 9 z M 12 9 L 22 9 C 22.552 9 23 9.448 23 10 C 23 10.552 22.552 11 22 11 L 12 11 C 11.448 11 11 10.552 11 10 C 11 9.448 11.448 9 12 9 z M 8 13 C 8.552 13 9 13.448 9 14 C 9 14.552 8.552 15 8 15 C 7.448 15 7 14.552 7 14 C 7 13.448 7.448 13 8 13 z M 12 13 L 22 13 C 22.552 13 23 13.448 23 14 C 23 14.552 22.552 15 22 15 L 12 15 C 11.448 15 11 14.552 11 14 C 11 13.448 11.448 13 12 13 z M 8 17 C 8.552 17 9 17.448 9 18 C 9 18.552 8.552 19 8 19 C 7.448 19 7 18.552 7 18 C 7 17.448 7.448 17 8 17 z M 12 17 L 22 17 C 22.552 17 23 17.448 23 18 C 23 18.552 22.552 19 22 19 L 12 19 C 11.448 19 11 18.552 11 18 C 11 17.448 11.448 17 12 17 z"/></svg>
